<?xml version="1.0" encoding="UTF-8" standalone="no"?>
<svg
   xmlns:dc="http://purl.org/dc/elements/1.1/"
   xmlns:cc="http://creativecommons.org/ns#"
   xmlns:rdf="http://www.w3.org/1999/02/22-rdf-syntax-ns#"
   xmlns:svg="http://www.w3.org/2000/svg"
   xmlns="http://www.w3.org/2000/svg"
   xmlns:sodipodi="http://sodipodi.sourceforge.net/DTD/sodipodi-0.dtd"
   xmlns:inkscape="http://www.inkscape.org/namespaces/inkscape"
   width="102.08817mm"
   height="56.087879mm"
   viewBox="0 0 102.08817 56.087879"
   version="1.1"
   id="svg954"
   inkscape:version="1.0.2 (394de47547, 2021-03-26)"
   sodipodi:docname="simple_choice.svg">
  <defs
     id="defs948" />
  <sodipodi:namedview
     id="base"
     pagecolor="#ffffff"
     bordercolor="#666666"
     borderopacity="1.0"
     inkscape:pageopacity="0.0"
     inkscape:pageshadow="2"
     inkscape:zoom="1.3488764"
     inkscape:cx="317.82561"
     inkscape:cy="184.56592"
     inkscape:document-units="mm"
     inkscape:current-layer="layer3"
     inkscape:document-rotation="0"
     showgrid="false"
     showguides="true"
     inkscape:guide-bbox="true"
     inkscape:lockguides="false"
     fit-margin-top="0"
     fit-margin-left="0"
     fit-margin-right="0"
     fit-margin-bottom="0"
     inkscape:window-width="1600"
     inkscape:window-height="847"
     inkscape:window-x="0"
     inkscape:window-y="27"
     inkscape:window-maximized="1">
    <sodipodi:guide
       position="102.27543,32.295932"
       orientation="1,0"
       id="guide1549"
       inkscape:locked="false" />
  </sodipodi:namedview>
  <metadata
     id="metadata951">
    <rdf:RDF>
      <cc:Work
         rdf:about="">
        <dc:format>image/svg+xml</dc:format>
        <dc:type
           rdf:resource="http://purl.org/dc/dcmitype/StillImage" />
        <dc:title></dc:title>
      </cc:Work>
    </rdf:RDF>
  </metadata>
  <g
     inkscape:groupmode="layer"
     id="layer3"
     inkscape:label="Layer 2"
     style="display:inline"
     transform="translate(-24.830353,-38.584034)">
    <path
       id="path1610"
       style="fill:none;stroke:#000000;stroke-width:0.333333;stop-color:#000000"
       d="m 101.57227,145.99609 c -4.187721,0 -7.558598,3.37088 -7.558598,7.5586 v 196.53515 c 0,4.18772 3.370877,7.5586 7.558598,7.5586 h 284.64062 c -1.0509,-2.28614 -2.07869,-4.57012 -2.91797,-6.82032 -1.06736,-2.8617 -1.97299,-5.69054 -2.74023,-8.4746 -6.62952,1.80028 -12.98041,3.23126 -19.0586,4.33007 -6.07818,1.09882 -11.88422,1.8655 -17.42773,2.33594 -5.54351,0.47044 -10.82411,0.64541 -15.84961,0.56055 -5.0255,-0.0849 -9.79617,-0.42902 -14.32031,-0.9961 -4.52415,-0.56707 -8.80235,-1.35778 -12.8418,-2.33398 -4.03945,-0.9762 -7.84069,-2.13894 -11.41211,-3.45117 -3.57141,-1.31224 -6.91121,-2.77442 -10.03125,-4.34961 -3.12004,-1.57519 -6.01975,-3.26229 -8.70508,-5.02734 -2.23561,-1.46947 -4.32214,-2.99295 -6.26758,-4.54297 -1.94543,-1.55002 -3.74858,-3.12668 -5.41992,-4.70703 -1.67133,-1.58036 -3.20971,-3.16414 -4.62304,-4.72461 -1.41334,-1.56048 -2.70163,-3.09751 -3.87305,-4.58789 -2.63991,1.26663 -5.37538,2.3965 -8.19141,3.3789 -2.81603,0.9824 -5.71292,1.81563 -8.68164,2.49219 -2.96871,0.67655 -6.00946,1.19583 -9.10742,1.54492 -3.09796,0.34909 -6.25327,0.52929 -9.45703,0.5293 -2.59582,-10e-6 -5.16138,-0.11754 -7.68945,-0.34766 -2.52807,-0.23012 -5.01908,-0.57255 -7.4668,-1.02148 -2.44772,-0.44894 -4.85226,-1.00565 -7.20703,-1.66211 -2.35477,-0.65646 -4.65898,-1.41293 -6.90821,-2.26563 -2.24922,-0.85269 -4.44314,-1.80026 -6.57421,-2.83789 -2.13108,-1.03763 -4.20085,-2.16568 -6.20118,-3.37695 -2.00033,-1.21128 -3.93207,-2.50724 -5.78906,-3.88086 -1.85698,-1.37363 -3.6388,-2.82493 -5.33984,-4.34961 -1.70104,-1.52468 -3.32102,-3.12267 -4.85352,-4.78711 -1.5325,-1.66444 -2.97676,-3.39459 -4.32812,-5.1875 -1.35136,-1.79291 -2.60996,-3.64851 -3.76758,-5.55859 -1.15762,-1.91009 -2.21474,-3.87466 -3.16602,-5.89063 -0.95128,-2.01597 -1.79695,-4.0828 -2.52929,-6.19336 -0.73235,-2.11055 -1.35076,-4.26513 -1.85157,-6.45898 -0.5008,-2.19385 -0.88395,-4.42751 -1.14062,-6.69336 -0.25667,-2.26585 -0.38678,-4.56407 -0.38672,-6.89063 -7e-5,-2.94224 0.21433,-5.87287 0.63867,-8.77148 0.42435,-2.89862 1.0584,-5.76494 1.89649,-8.58398 0.83809,-2.81905 1.87992,-5.58944 3.12109,-8.29297 1.24117,-2.70354 2.68088,-5.34049 4.31445,-7.89258 -4.07769,-0.7182 -7.61495,-1.61456 -10.68554,-2.6836 -1.5353,-0.53451 -2.9541,-1.1113 -4.26563,-1.73242 -1.31152,-0.62111 -2.51467,-1.28522 -3.62109,-1.99219 -1.52977,-0.97747 -2.84796,-2.062 -3.96289,-3.21484 -1.11493,-1.15284 -2.02619,-2.37545 -2.74805,-3.6289 -0.72186,-1.25346 -1.25295,-2.53709 -1.60351,-3.81641 -0.35057,-1.27932 -0.52045,-2.55277 -0.52149,-3.7832 -7.2e-4,-0.84732 0.0769,-1.66702 0.18359,-2.47266 -1.99163,-0.82703 -3.80396,-1.89364 -5.40234,-3.15234 -1.59838,-1.25871 -2.98375,-2.7101 -4.11914,-4.30274 -1.13539,-1.59264 -2.02232,-3.3274 -2.625,-5.15625 -0.60268,-1.82884 -0.92163,-3.75143 -0.92188,-5.71875 3e-5,-1.3948 0.1587,-2.757 0.45899,-4.07226 0.30029,-1.31527 0.74215,-2.58433 1.3125,-3.79297 0.57035,-1.20865 1.26988,-2.35671 2.08008,-3.43164 0.81019,-1.07494 1.73212,-2.07611 2.75195,-2.99024 1.01983,-0.91413 2.13669,-1.74056 3.33594,-2.4668 1.19924,-0.72623 2.48162,-1.35202 3.83008,-1.86328 1.34845,-0.51125 2.76302,-0.90855 4.23046,-1.17773 1.46745,-0.26918 2.98675,-0.41014 4.54297,-0.41016 1.55623,2e-5 3.07553,0.14098 4.54297,0.41016 1.46745,0.26918 2.88397,0.66648 4.23242,1.17773 1.34846,0.51126 2.62888,1.13705 3.82813,1.86328 1.19925,0.72624 2.31611,1.55267 3.33594,2.4668 1.01982,0.91413 1.94371,1.9153 2.7539,2.99024 0.8102,1.07493 1.50778,2.22299 2.07813,3.43164 0.57035,1.20864 1.0122,2.4777 1.3125,3.79297 0.30029,1.31526 0.45896,2.67746 0.45898,4.07226 -1e-4,1.34746 -0.14795,2.66592 -0.42968,3.94141 -0.28174,1.27549 -0.69786,2.50726 -1.23438,3.68554 -0.53652,1.17828 -1.19451,2.3016 -1.95898,3.35743 -0.76448,1.05582 -1.63598,2.04499 -2.60157,2.95312 -0.96558,0.90813 -2.0242,1.73552 -3.16406,2.4707 -1.13986,0.73519 -2.36114,1.37902 -3.64844,1.91602 -1.2873,0.537 -2.64092,0.96767 -4.04883,1.28125 -1.4079,0.31358 -2.86943,0.50931 -4.37109,0.57422 -0.0188,0.20686 -0.0412,0.41517 -0.041,0.61719 4.8e-4,0.57897 0.0364,1.13264 0.15039,1.67578 0.11397,0.54314 0.30494,1.0746 0.61328,1.60937 0.30834,0.53478 0.73478,1.07308 1.31836,1.62696 0.58358,0.55387 1.32398,1.12417 2.26367,1.7246 0.81479,0.52063 1.80213,1.04514 2.97461,1.5586 1.17248,0.51346 2.53109,1.015 4.09375,1.49219 1.56266,0.47718 3.3291,0.92999 5.31445,1.34179 1.98535,0.41181 4.19032,0.78229 6.63086,1.09961 1.7844,-1.98628 3.68209,-3.86717 5.68164,-5.64062 1.99955,-1.77345 4.0999,-3.4378 6.29102,-4.98828 2.19111,-1.55049 4.47293,-2.9873 6.83203,-4.30469 2.3591,-1.3174 4.79533,-2.51567 7.29883,-3.58984 2.5035,-1.07418 5.07295,-2.02489 7.69726,-2.84571 2.62432,-0.82082 5.30385,-1.51297 8.02539,-2.07031 2.72155,-0.55734 5.48606,-0.97994 8.28125,-1.26367 2.7952,-0.28374 5.62154,-0.42774 8.4668,-0.42774 3.61477,2e-5 7.20972,0.23321 10.75977,0.69336 3.55004,0.46015 7.05404,1.14652 10.48632,2.05274 3.43228,0.90621 6.7932,2.03288 10.05469,3.37109 3.26149,1.33821 6.42328,2.8884 9.46094,4.64453 1.03604,-3.62232 2.33871,-7.20729 3.9375,-10.69726 0.79939,-1.74499 1.67307,-3.46641 2.625,-5.15625 0.95192,-1.68984 1.9814,-3.34877 3.09375,-4.96875 1.11235,-1.61999 2.30722,-3.2009 3.58789,-4.73633 1.28067,-1.53543 2.64858,-3.02478 4.10547,-4.46094 1.45689,-1.43616 3.00352,-2.82038 4.64453,-4.14258 1.641,-1.32219 3.37597,-2.58383 5.20898,-3.77734 l 0.0293,-0.0195 c 1.34548,-0.86536 2.70279,-1.61203 4.07227,-2.25977 1.36948,-0.64774 2.75013,-1.1954 4.14257,-1.66015 2.7849,-0.92952 5.61576,-1.52825 8.48633,-1.9336 2.87058,-0.40535 5.78246,-0.61716 8.73047,-0.77539 2.94801,-0.15823 5.93202,-0.26303 8.94922,-0.45117 2.2629,-0.14117 4.52447,-0.20111 6.7793,-0.1875 4.88547,0.029 9.73297,0.39719 14.45507,1.00391 4.72211,0.60671 9.31979,1.45256 13.70704,2.43554 l 0.10937,0.0273 0.11328,0.0254 c 3.29086,0.80115 6.80353,1.34641 10.44141,1.86523 3.63787,0.51883 7.40087,1.01188 11.1914,1.70703 1.89527,0.34758 3.79833,0.745 5.69532,1.22266 1.89698,0.47765 3.7877,1.0361 5.66211,1.70117 1.87441,0.66507 3.73105,1.43785 5.55859,2.34766 1.82754,0.90981 3.62644,1.95608 5.38281,3.16797 1.49484,0.98533 2.81173,2.10711 3.95508,3.32226 1.14336,1.21516 2.11304,2.52335 2.91602,3.87891 0.80297,1.35556 1.43841,2.75948 1.91211,4.16601 0.47369,1.40654 0.78588,2.8155 0.9414,4.1836 0.15629,1.3749 0.19167,2.72289 0.1211,4.04101 -0.0706,1.31812 -0.24665,2.60724 -0.51563,3.86328 -0.26898,1.25605 -0.63136,2.47929 -1.07031,3.66797 -0.43895,1.18868 -0.95469,2.34297 -1.53516,3.45899 l 0.15625,-0.3125 c -1.102,2.32084 -2.08916,4.57391 -2.91015,6.74414 -0.821,2.17022 -1.4761,4.25806 -1.91211,6.24414 -0.43602,1.98608 -0.6545,3.87028 -0.60157,5.63867 0.0529,1.76839 0.3776,3.42033 1.02344,4.9375 0.80806,1.8126 1.76006,3.59534 2.83594,5.33594 1.63143,-0.67024 3.29732,-1.25849 4.99219,-1.76563 1.69486,-0.50714 3.4189,-0.93235 5.16211,-1.27343 1.74321,-0.34109 3.50672,-0.59942 5.2832,-0.77149 1.77648,-0.17207 3.56471,-0.25772 5.35937,-0.25781 3.44634,-1e-5 6.60229,0.31166 9.48438,0.90625 1.44104,0.29729 2.81396,0.66483 4.12109,1.09961 1.30713,0.43477 2.54858,0.93714 3.72656,1.50195 1.17799,0.56481 2.2921,1.19151 3.34571,1.87891 1.0536,0.6874 2.04647,1.43574 2.98047,2.23828 1.86798,1.60508 3.49984,3.43215 4.91797,5.45312 1.41812,2.02097 2.6225,4.23599 3.6289,6.61328 1.0064,2.3773 1.81642,4.91776 2.44922,7.5918 0.63281,2.67405 1.08743,5.48135 1.38477,8.39258 0.29733,2.91123 0.4375,5.92483 0.4375,9.01367 0,3.08885 -0.14017,6.10542 -0.4375,9.01953 -0.29734,2.91411 -0.75196,5.72727 -1.38477,8.40625 -0.6328,2.67899 -1.44282,5.22396 -2.44922,7.60742 -1.0064,2.38347 -2.21078,4.60526 -3.6289,6.63282 -1.41813,2.02756 -3.04999,3.8614 -4.91797,5.47265 -0.934,0.80563 -1.92687,1.55587 -2.98047,2.2461 -1.05361,0.69023 -2.16772,1.32139 -3.34571,1.88867 -1.17798,0.56728 -2.41943,1.07103 -3.72656,1.50781 -1.30713,0.43678 -2.68005,0.80673 -4.12109,1.10547 -2.88209,0.59747 -6.03804,0.91016 -9.48438,0.91016 -1.98409,0 -3.94017,-0.10406 -5.86328,-0.30664 -1.92311,-0.20259 -3.81239,-0.5033 -5.66211,-0.89649 -1.84971,-0.39318 -3.65993,-0.87939 -5.42382,-1.45117 -1.7639,-0.57178 -3.48278,-1.22842 -5.14844,-1.9668 -0.85668,1.2908 -1.70849,2.8252 -2.47071,4.55274 -0.76221,1.72753 -1.43302,3.64659 -1.92773,5.70312 -0.49471,2.05653 -0.81304,4.25153 -0.86719,6.5293 -0.0541,2.27777 0.15538,4.63998 0.71485,7.03125 0.27973,1.19563 0.64574,2.39775 1.11132,3.60156 0.46559,1.20381 1.03007,2.40891 1.70313,3.60742 0.67306,1.19851 1.45525,2.39057 2.35742,3.57032 0.90218,1.17974 1.92521,2.34662 3.07813,3.49414 1.15291,1.14751 2.43603,2.27514 3.86132,3.37695 1.4253,1.10181 2.99164,2.17806 4.71094,3.2207 1.7193,1.04265 3.59202,2.05148 5.62696,3.02149 0.68054,0.3244 1.49152,0.61637 2.20898,0.93164 h 51.08594 c 4.18771,0 7.55859,-3.37088 7.55859,-7.5586 V 153.55469 c 0,-4.18772 -3.37088,-7.5586 -7.55859,-7.5586 z"
       transform="scale(0.26458333)" />
    <path
       id="rect1517"
       style="display:inline;fill:none;stroke:#000000;stroke-width:0.333333;stop-color:#000000"
       d="m 323.5625,170.34961 c -2.51302,0.0356 -4.98599,0.19137 -7.40039,0.47851 -2.41441,0.28715 -4.76929,0.70557 -7.04492,1.27149 -2.27563,0.56592 -4.47168,1.27846 -6.56836,2.15039 -2.09668,0.87193 -4.09509,1.90421 -5.97266,3.10938 -1.55568,1.01472 -3.01981,2.13236 -4.39453,3.34374 -1.37471,1.21139 -2.66015,2.51495 -3.85742,3.89844 -1.19727,1.38349 -2.30672,2.84787 -3.33008,4.37891 -1.02336,1.53104 -1.95953,3.12916 -2.8125,4.7832 -0.85297,1.65404 -1.62248,3.36471 -2.30859,5.11719 -0.68611,1.75248 -1.28973,3.54668 -1.8125,5.37305 -1.04555,3.65274 -1.76827,7.4295 -2.18164,11.23047 2.3725,2.89285 4.47282,5.9369 6.28711,9.0996 1.81429,3.16271 3.34336,6.4436 4.57617,9.8125 1.23281,3.3689 2.16881,6.82451 2.79687,10.33594 0.62806,3.51143 0.94723,7.07963 0.94727,10.66992 7e-5,2.54279 -0.15659,5.05218 -0.46289,7.52149 -0.30631,2.46931 -0.76131,4.89811 -1.35742,7.27929 -0.59612,2.38119 -1.33376,4.71379 -2.20313,6.99219 -0.86937,2.27841 -1.87003,4.50308 -2.99609,6.66407 -1.12607,2.16098 -2.37599,4.25819 -3.74219,6.2871 -1.3662,2.02892 -2.84968,3.98891 -4.43945,5.8711 -1.58977,1.88219 -3.2872,3.68738 -5.08399,5.4082 -1.79678,1.72082 -3.69245,3.35754 -5.67969,4.90234 1.8054,2.14248 3.94711,4.40625 6.47266,6.6836 2.52556,2.27735 5.43464,4.56847 8.77734,6.76562 2.21276,1.45444 4.61253,2.86586 7.2168,4.19532 2.60428,1.32946 5.41368,2.57739 8.44336,3.70312 3.02968,1.12573 6.28057,2.12939 9.76953,2.97266 3.48896,0.84326 7.21514,1.52576 11.19727,2.00781 3.98213,0.48205 8.21933,0.76259 12.72851,0.80469 4.50918,0.0421 9.29121,-0.15425 14.36133,-0.63086 5.07012,-0.47661 10.42881,-1.23259 16.09375,-2.30664 5.66494,-1.07406 11.63604,-2.46656 17.92969,-4.2168 -0.39211,-3.70057 -0.56206,-7.25035 -0.56836,-10.61328 -0.006,-3.36293 0.15089,-6.53998 0.41602,-9.49219 0.26512,-2.9522 0.63641,-5.68004 1.05859,-8.14844 0.42217,-2.46839 0.89454,-4.67639 1.35937,-6.58789 -1.08332,-1.65727 -2.05136,-3.38197 -2.89453,-5.16601 -0.84317,-1.78404 -1.56001,-3.62816 -2.14258,-5.52149 -0.58256,-1.89332 -1.03052,-3.83712 -1.33203,-5.82226 -0.3015,-1.98514 -0.45703,-4.01083 -0.45703,-6.07031 7e-5,-2.54911 0.24307,-5.07936 0.71875,-7.56446 0.47568,-2.4851 1.18402,-4.92489 2.11524,-7.29492 0.93121,-2.37002 2.08449,-4.66917 3.45117,-6.87305 1.36668,-2.20388 2.94644,-4.31216 4.72851,-6.29882 -1.14465,-1.66605 -2.21577,-3.37652 -3.20312,-5.12891 -0.98736,-1.75239 -1.89163,-3.54703 -2.70508,-5.38086 l -0.0293,-0.0547 -0.0234,-0.0527 c -0.79392,-1.84858 -1.39048,-3.68462 -1.81836,-5.50195 -0.42789,-1.81734 -0.68616,-3.61634 -0.80274,-5.39063 -0.11658,-1.77429 -0.0912,-3.5247 0.0488,-5.24414 0.14001,-1.71944 0.39445,-3.40777 0.73633,-5.06055 0.68375,-3.30555 1.71598,-6.46551 2.87891,-9.43359 1.16292,-2.96809 2.45582,-5.74508 3.66015,-8.28125 l 0.0762,-0.1582 0.0801,-0.16211 c 0.37705,-0.72489 0.65339,-1.55371 0.82031,-2.33008 0.16693,-0.77638 0.2258,-1.50035 0.16797,-2.00977 -0.11584,-1.01882 -0.11874,-0.92519 -0.55078,-1.20703 l -0.14844,-0.0937 -0.13281,-0.0977 c -2.16722,-1.50821 -4.59037,-2.81233 -7.22656,-3.97265 -2.6362,-1.16032 -5.4845,-2.17822 -8.5,-3.11328 -6.031,-1.87014 -12.73196,-3.41217 -19.74219,-5.11719 -3.98615,-0.89168 -8.02761,-1.59726 -12.05078,-2.06641 -4.02317,-0.46914 -8.02641,-0.70187 -11.93555,-0.64648 z"
       transform="scale(0.26458333)" />
  </g>
</svg>
